<?xml version="1.0" standalone="no"?>
<!DOCTYPE svg PUBLIC "-//W3C//DTD SVG 20010904//EN"
 "http://www.w3.org/TR/2001/REC-SVG-20010904/DTD/svg10.dtd">
<svg version="1.0" xmlns="http://www.w3.org/2000/svg"
 width="156.000000pt" height="156.000000pt" viewBox="0 0 156.000000 156.000000"
 preserveAspectRatio="xMidYMid meet">
<metadata>
Created by potrace 1.11, written by Peter Selinger 2001-2013
</metadata>
<g transform="translate(0.000000,156.000000) scale(0.100000,-0.100000)"
fill="#000000" stroke="none">
<path d="M549 1415 c-3 -2 -20 -7 -39 -10 -19 -3 -68 -21 -108 -40 -134 -63
-232 -184 -278 -340 -23 -81 -23 -249 0 -329 55 -187 194 -329 366 -376 179
-48 379 -7 505 103 l40 36 -64 64 -64 65 -47 -34 c-143 -103 -336 -91 -458 28
-78 75 -113 172 -108 297 8 208 134 343 332 355 80 5 158 -17 225 -63 l57 -39
63 65 64 64 -40 35 c-43 37 -160 98 -210 110 -35 8 -230 16 -236 9z"/>
<path d="M1060 1060 l0 -119 -112 -3 -113 -3 0 -75 0 -75 85 -2 c47 -1 97 -2
113 -2 l27 -1 0 -120 0 -120 78 0 79 0 0 115 c0 64 3 118 6 121 3 3 56 6 119
7 l113 2 0 78 0 77 -117 0 c-105 0 -118 2 -119 18 -1 9 -1 63 -1 120 l0 102
-79 0 -79 0 0 -120z"/>
<path d="M411 91 c1 -50 5 -81 13 -83 6 -2 128 -4 271 -4 l260 1 3 83 3 82
-276 0 -275 0 1 -79z"/>
</g>
</svg>
