<?xml version="1.0" standalone="no"?>
<!DOCTYPE svg PUBLIC "-//W3C//DTD SVG 20010904//EN"
 "http://www.w3.org/TR/2001/REC-SVG-20010904/DTD/svg10.dtd">
<svg version="1.0" xmlns="http://www.w3.org/2000/svg"
 width="1000.000000pt" height="200.000000pt" viewBox="0 0 1000.000000 200.000000"
 preserveAspectRatio="xMidYMid meet">

<g transform="translate(0.000000,200.000000) scale(0.100000,-0.100000)"
fill="#f40" stroke="none">
<path d="M5796 1649 c-10 -24 -106 -271 -213 -549 -107 -278 -197 -511 -200
-517 -4 -10 19 -13 95 -13 l100 0 22 60 23 60 190 -2 191 -3 22 -55 22 -55
102 -3 c56 -1 99 1 97 5 -4 6 -396 1016 -427 1097 -5 16 -10 11 -24 -25z m138
-776 l7 -23 -129 0 -130 0 39 113 c22 61 51 145 66 186 l26 74 57 -164 c31
-90 60 -174 64 -186z"/>
<path d="M8026 1649 c-10 -24 -106 -271 -213 -549 -107 -278 -197 -511 -200
-517 -4 -10 19 -13 95 -13 l100 0 22 60 23 60 190 -2 191 -3 22 -55 22 -55
102 -3 c56 -1 99 1 97 5 -4 6 -396 1016 -427 1097 -5 16 -10 11 -24 -25z m138
-776 l7 -23 -129 0 -130 0 39 113 c22 61 51 145 66 186 l26 74 57 -164 c31
-90 60 -174 64 -186z"/>
<path d="M794 1655 c-185 -40 -340 -192 -389 -382 -20 -75 -20 -251 0 -326 50
-191 206 -343 392 -382 177 -38 359 4 480 111 l38 33 -64 64 -63 65 -44 -33
c-90 -69 -234 -90 -343 -50 -65 24 -153 100 -183 159 -82 160 -56 358 62 477
115 115 329 127 463 24 l44 -34 64 65 64 65 -40 35 c-50 44 -164 99 -233 113
-69 14 -172 13 -248 -4z"/>
<path d="M1865 1660 c-113 -25 -199 -73 -272 -154 -93 -102 -143 -238 -143
-391 0 -248 131 -448 346 -527 86 -31 292 -31 378 0 213 79 346 281 346 527 0
245 -137 452 -346 526 -66 23 -241 34 -309 19z m233 -185 c157 -47 264 -241
234 -423 -32 -193 -165 -313 -347 -313 -178 0 -302 107 -341 292 -40 194 57
383 226 442 58 21 162 21 228 2z"/>
<path d="M2730 1110 l0 -540 90 0 90 0 2 381 3 381 270 -381 270 -381 93 0 92
0 0 540 0 540 -90 0 -90 0 -2 -379 -3 -380 -270 380 -269 379 -93 0 -93 0 0
-540z"/>
<path d="M3790 1570 l0 -80 115 0 115 0 0 -460 0 -460 90 0 90 0 0 460 0 460
115 0 115 0 0 80 0 80 -320 0 -320 0 0 -80z"/>
<path d="M4570 1110 l0 -540 90 0 90 0 0 225 0 225 73 0 74 0 103 -225 103
-225 99 0 c93 0 99 1 93 19 -3 11 -51 115 -105 232 -55 117 -100 216 -100 220
0 4 19 17 43 29 54 28 103 75 130 125 18 33 22 56 22 140 0 112 -15 153 -77
214 -84 83 -160 101 -425 101 l-213 0 0 -540z m464 336 c44 -22 76 -68 76
-111 0 -43 -32 -89 -76 -111 -30 -14 -67 -19 -161 -22 l-123 -4 0 137 0 137
123 -4 c94 -3 131 -8 161 -22z"/>
<path d="M6370 1110 l0 -540 90 0 90 0 0 225 0 225 73 0 74 0 103 -225 103
-225 99 0 c93 0 99 1 93 19 -3 11 -51 115 -105 232 -55 117 -100 216 -100 220
0 4 19 17 43 29 54 28 103 75 130 125 18 33 22 56 22 140 0 112 -15 153 -77
214 -84 83 -160 101 -425 101 l-213 0 0 -540z m464 336 c44 -22 76 -68 76
-111 0 -43 -32 -89 -76 -111 -30 -14 -67 -19 -161 -22 l-123 -4 0 137 0 137
123 -4 c94 -3 131 -8 161 -22z"/>
<path d="M7310 1110 l0 -540 90 0 90 0 0 540 0 540 -90 0 -90 0 0 -540z"/>
<path d="M8600 1110 l0 -540 90 0 90 0 2 381 3 381 270 -381 270 -381 93 0 92
0 0 540 0 540 -90 0 -90 0 -2 -379 -3 -380 -270 380 -269 379 -93 0 -93 0 0
-540z"/>
</g>
</svg>
